<svg width="22" height="22" viewBox="0 0 22 22" fill="none" xmlns="http://www.w3.org/2000/svg">
<path d="M20.1667 9.62492V10.9999C20.1667 15.3211 20.1667 17.4818 18.8242 18.8241C17.4819 20.1666 15.3212 20.1666 11 20.1666C6.6788 20.1666 4.5182 20.1666 3.17577 18.8241C1.83334 17.4818 1.83334 15.3211 1.83334 10.9999C1.83334 6.67871 1.83334 4.5181 3.17577 3.17568C4.5182 1.83325 6.6788 1.83325 11 1.83325H12.375" stroke="#F97272" stroke-width="1.5" stroke-linecap="round"/>
<path d="M15.2643 3.16706L15.8592 2.57231C16.8446 1.5869 18.4422 1.5869 19.4277 2.57231C20.413 3.55772 20.413 5.15539 19.4277 6.1408L18.8328 6.73554M15.2643 3.16706C15.2643 3.16706 15.3387 4.4309 16.4539 5.54605C17.569 6.6612 18.8328 6.73554 18.8328 6.73554M15.2643 3.16706L9.79661 8.63486C9.42628 9.0052 9.24111 9.19033 9.08182 9.39456C8.89396 9.63537 8.7329 9.89598 8.6015 10.1717C8.4901 10.4055 8.40728 10.6539 8.24166 11.1508L7.7114 12.7416M18.8328 6.73554L13.3651 12.2033C12.9948 12.5737 12.8096 12.7588 12.6054 12.9181C12.3646 13.106 12.104 13.267 11.8282 13.3985C11.5945 13.5098 11.3461 13.5926 10.8491 13.7583L9.25835 14.2886M7.7114 12.7416L7.36828 13.7709C7.28678 14.0155 7.35041 14.285 7.53267 14.4673C7.71492 14.6495 7.9845 14.7132 8.22901 14.6317L9.25835 14.2886M7.7114 12.7416L9.25835 14.2886" stroke="#F97272" stroke-width="1.5"/>
</svg>
