<svg width="32" height="32" viewBox="0 0 32 32" fill="none" xmlns="http://www.w3.org/2000/svg">
<path fill-rule="evenodd" clip-rule="evenodd" d="M20.0622 13.1555C20.0622 16.97 16.97 20.0622 13.1555 20.0622C9.34109 20.0622 6.24887 16.97 6.24887 13.1555C6.24887 9.34109 9.34109 6.24887 13.1555 6.24887C16.97 6.24887 20.0622 9.34109 20.0622 13.1555ZM18.6705 20.531C17.1332 21.6824 15.224 22.3644 13.1555 22.3644C8.06961 22.3644 3.94666 18.2415 3.94666 13.1555C3.94666 8.06961 8.06961 3.94666 13.1555 3.94666C18.2415 3.94666 22.3644 8.06961 22.3644 13.1555C22.3644 15.224 21.6824 17.1332 20.531 18.6706L28.5568 26.6964L26.6964 28.5569L18.6705 20.531Z" fill="#F97272"/>
</svg>
