<svg width="16" height="16" viewBox="0 0 16 16" fill="none" xmlns="http://www.w3.org/2000/svg">
<path fill-rule="evenodd" clip-rule="evenodd" d="M13.4006 10.2487C13.4006 10.4787 13.3106 10.7087 13.1406 10.8887C12.9719 11.0566 12.7436 11.1509 12.5056 11.1509C12.2676 11.1509 12.0393 11.0566 11.8706 10.8887L8.00061 7.01867L4.14061 10.8887C3.97194 11.0566 3.74362 11.1509 3.50561 11.1509C3.2676 11.1509 3.03928 11.0566 2.87061 10.8887C2.70268 10.72 2.6084 10.4917 2.6084 10.2537C2.6084 10.0157 2.70268 9.78734 2.87061 9.61867L7.37061 5.11867C7.53928 4.95074 7.7676 4.85646 8.00561 4.85646C8.24362 4.85646 8.47194 4.95074 8.64061 5.11867L13.1406 9.61867C13.3106 9.78867 13.4006 10.0187 13.4006 10.2487Z" fill="#212224"/>
</svg>
