<svg width="26" height="26" viewBox="0 0 26 26" fill="none" xmlns="http://www.w3.org/2000/svg">
<g clip-path="url(#clip0_24_156)">
<path d="M3.0478 16.7556L1.67557 22.6778C1.62824 22.8943 1.62986 23.1186 1.68032 23.3344C1.73079 23.5502 1.82882 23.752 1.96725 23.925C2.10569 24.0981 2.28103 24.238 2.48047 24.3346C2.67992 24.4312 2.89842 24.482 3.12002 24.4834C3.22328 24.4938 3.32732 24.4938 3.43057 24.4834L9.38891 23.1111L20.8289 11.7145L14.4445 5.34448L3.0478 16.7556Z" fill="black"/>
<path d="M24.4254 6.00881L20.1642 1.7477C19.8841 1.46897 19.505 1.3125 19.1098 1.3125C18.7146 1.3125 18.3355 1.46897 18.0554 1.7477L15.6865 4.11659L22.0637 10.4938L24.4326 8.12492C24.5712 7.98559 24.681 7.82029 24.7557 7.63848C24.8304 7.45667 24.8684 7.26192 24.8678 7.06537C24.8671 6.86882 24.8277 6.67434 24.7518 6.49304C24.6758 6.31174 24.5649 6.1472 24.4254 6.00881Z" fill="black"/>
</g>
<defs>
<clipPath id="clip0_24_156">
<rect width="26" height="26" fill="white"/>
</clipPath>
</defs>
</svg>
